# xmcd
#
# Track frame offsets:
# 150
# 35130
# 63606
# 97164
# 128372
# 164740
# 196838
# 228052
# 249802
# 275044
#
# Disc length: 3925 seconds
#
# Revision: 0
# Processed by: cddbd v1.4PL0 Copyright (c) Steve Scherf et al.
# Submitted via: Audion 3.0.2 (http://www.panic.com/audion/)
#
DISCID=890f530a
DTITLE=Various Artist - Club House 01
DYEAR=1900
DGENRE=
TTITLE0=Quiet Nights
TTITLE1=Shepper
TTITLE2=Vibes
TTITLE3=Summer Daze
TTITLE4=It's in the lifestyle
TTITLE5=U&I
TTITLE6=Sunshine
TTITLE7=My forbidden lover
TTITLE8=Here comes the lick again
TTITLE9=My love is real
EXTD=
EXTT0=
EXTT1=
EXTT2=
EXTT3=
EXTT4=
EXTT5=
EXTT6=
EXTT7=
EXTT8=
EXTT9=
PLAYORDER=
